solid Kamev2
facet normal 0.4308387273221645 0.0 -0.9024289396065585
  outer loop
    vertex 803.3914137793242 358.6076376028557 38.746542474321444
    vertex 802.4490920019806 345.1076376028557 38.296658059648536
    vertex 802.4490920019806 358.6076376028557 38.296658059648536
  endloop
endfacet
facet normal 0.4308387273221645 0.0 -0.9024289396065585
  outer loop
    vertex 802.4490920019806 345.1076376028557 38.296658059648536
    vertex 803.3914137793242 358.6076376028557 38.746542474321444
    vertex 803.3914137793242 345.1076376028557 38.746542474321444
  endloop
endfacet
facet normal 0.13052689973645207 0.0 -0.9914447682272524
  outer loop
    vertex 844.2469244909943 358.6076376028557 48.23673488765152
    vertex 843.2116499853789 345.1076376028557 48.100437661699345
    vertex 843.2116499853789 358.6076376028557 48.100437661699345
  endloop
endfacet
facet normal 0.13052689973645207 0.0 -0.9914447682272524
  outer loop
    vertex 843.2116499853789 345.1076376028557 48.100437661699345
    vertex 844.2469244909943 358.6076376028557 48.23673488765152
    vertex 844.2469244909943 345.1076376028557 48.23673488765152
  endloop
endfacet
facet normal -0.07809917390692489 0.0 -0.9969455948220324
  outer loop
    vertex 801.4224348974883 358.6076376028557 38.10599567561533
    vertex 800.3814192724883 345.1076376028557 38.187547227434216
    vertex 800.3814192724883 358.6076376028557 38.187547227434216
  endloop
endfacet
facet normal -0.07809917390692489 0.0 -0.9969455948220324
  outer loop
    vertex 800.3814192724883 345.1076376028557 38.187547227434216
    vertex 801.4224348974883 358.6076376028557 38.10599567561533
    vertex 801.4224348974883 345.1076376028557 38.10599567561533
  endloop
endfacet
facet normal -1.0358243115073125e-31 1.0 4.066723998307548e-31
  outer loop
    vertex 800.3814192724883 358.6076376028557 38.187547227434216
    vertex 802.4490920019806 358.6076376028557 38.296658059648536
    vertex 801.4224348974883 358.6076376028557 38.10599567561533
  endloop
endfacet
facet normal -1.0358243115073125e-31 1.0 4.066723998307548e-31
  outer loop
    vertex 802.4490920019806 358.6076376028557 38.296658059648536
    vertex 800.3814192724883 358.6076376028557 38.187547227434216
    vertex 799.3969756079375 358.6076376028557 38.53575565486342
  endloop
endfacet
facet normal -1.0358243115073125e-31 1.0 4.066723998307548e-31
  outer loop
    vertex 802.4490920019806 358.6076376028557 38.296658059648536
    vertex 799.3969756079375 358.6076376028557 38.53575565486342
    vertex 803.3914137793242 358.6076376028557 38.746542474321444
  endloop
endfacet
facet normal -1.0358243115073125e-31 1.0 4.066723998307548e-31
  outer loop
    vertex 803.3914137793242 358.6076376028557 38.746542474321444
    vertex 799.3969756079375 358.6076376028557 38.53575565486342
    vertex 798.5362044287382 358.6076376028557 39.12689258723641
  endloop
endfacet
facet normal -1.0358243115073125e-31 1.0 4.066723998307548e-31
  outer loop
    vertex 803.3914137793242 358.6076376028557 38.746542474321444
    vertex 798.5362044287382 358.6076376028557 39.12689258723641
    vertex 801.965515098843 358.6076376028557 40.498390304562086
  endloop
endfacet
facet normal -1.0358243115073125e-31 1.0 4.066723998307548e-31
  outer loop
    vertex 803.3914137793242 358.6076376028557 38.746542474321444
    vertex 801.965515098843 358.6076376028557 40.498390304562086
    vertex 817.7837706518827 358.6076376028557 48.100437661699345
  endloop
endfacet
facet normal -1.0358243115073125e-31 1.0 4.066723998307548e-31
  outer loop
    vertex 801.965515098843 358.6076376028557 40.498390304562086
    vertex 798.5362044287382 358.6076376028557 39.12689258723641
    vertex 801.5434211293073 358.6076376028557 40.36124353515897
  endloop
endfacet
facet normal -1.0358243115073125e-31 1.0 4.066723998307548e-31
  outer loop
    vertex 801.5434211293073 358.6076376028557 40.36124353515897
    vertex 798.5362044287382 358.6076376028557 39.12689258723641
    vertex 797.8577528906523 358.6076376028557 39.9206700530568
  endloop
endfacet
facet normal -1.0358243115073125e-31 1.0 4.066723998307548e-31
  outer loop
    vertex 801.5434211293073 358.6076376028557 40.36124353515897
    vertex 797.8577528906523 358.6076376028557 39.9206700530568
    vertex 801.1004769767524 358.6076376028557 40.33337478015305
  endloop
endfacet
facet normal -1.0358243115073125e-31 1.0 4.066723998307548e-31
  outer loop
    vertex 817.7837706518827 358.6076376028557 48.100437661699345
    vertex 801.965515098843 358.6076376028557 40.498390304562086
    vertex 802.3402424090832 358.6076376028557 40.73620138246233
  endloop
endfacet
facet normal -1.0358243115073125e-31 1.0 4.066723998307548e-31
  outer loop
    vertex 817.7837706518827 358.6076376028557 48.100437661699345
    vertex 802.3402424090832 358.6076376028557 40.73620138246233
    vertex 802.6440592139606 358.6076376028557 41.05973032383004
  endloop
endfacet
facet normal -1.0358243115073125e-31 1.0 4.066723998307548e-31
  outer loop
    vertex 817.7837706518827 358.6076376028557 48.100437661699345
    vertex 802.6440592139606 358.6076376028557 41.05973032383004
    vertex 802.8578715392146 358.6076376028557 41.44865174915525
  endloop
endfacet
facet normal -1.0358243115073125e-31 1.0 4.066723998307548e-31
  outer loop
    vertex 817.7837706518827 358.6076376028557 48.100437661699345
    vertex 802.8578715392146 358.6076376028557 41.44865174915525
    vertex 802.9682420874294 358.6076376028557 41.87852874506148
  endloop
endfacet
facet normal -1.0358243115073125e-31 1.0 4.066723998307548e-31
  outer loop
    vertex 817.7837706518827 358.6076376028557 48.100437661699345
    vertex 802.9682420874294 358.6076376028557 41.87852874506148
    vertex 802.9682420874294 358.6076376028557 42.322346578337225
  endloop
endfacet
facet normal -1.0358243115073125e-31 1.0 4.066723998307548e-31
  outer loop
    vertex 817.7837706518827 358.6076376028557 48.100437661699345
    vertex 802.9682420874294 358.6076376028557 42.322346578337225
    vertex 802.8578715392146 358.6076376028557 42.75222357424336
  endloop
endfacet
facet normal -1.0358243115073125e-31 1.0 4.066723998307548e-31
  outer loop
    vertex 817.7837706518827 358.6076376028557 48.100437661699345
    vertex 802.8578715392146 358.6076376028557 42.75222357424336
    vertex 802.6440592139606 358.6076376028557 43.14114499956867
  endloop
endfacet
facet normal -1.0358243115073125e-31 1.0 4.066723998307548e-31
  outer loop
    vertex 817.7837706518827 358.6076376028557 48.100437661699345
    vertex 802.6440592139606 358.6076376028557 43.14114499956867
    vertex 802.3402424090832 358.6076376028557 43.46467394093638
  endloop
endfacet
facet normal -1.0358243115073125e-31 1.0 4.066723998307548e-31
  outer loop
    vertex 817.7837706518827 358.6076376028557 48.100437661699345
    vertex 802.3402424090832 358.6076376028557 43.46467394093638
    vertex 801.965515098843 358.6076376028557 43.70248501883662
  endloop
endfacet
facet normal -1.0358243115073125e-31 1.0 4.066723998307548e-31
  outer loop
    vertex 817.7837706518827 358.6076376028557 48.100437661699345
    vertex 801.965515098843 358.6076376028557 43.70248501883662
    vertex 801.5434211293073 358.6076376028557 43.83963178823974
  endloop
endfacet
facet normal -1.0358243115073125e-31 1.0 4.066723998307548e-31
  outer loop
    vertex 817.7837706518827 358.6076376028557 48.100437661699345
    vertex 801.5434211293073 358.6076376028557 43.83963178823974
    vertex 801.1004769767524 358.6076376028557 43.867500543245654
  endloop
endfacet
facet normal -1.0358243115073125e-31 1.0 4.066723998307548e-31
  outer loop
    vertex 817.7837706518827 358.6076376028557 48.100437661699345
    vertex 801.1004769767524 358.6076376028557 43.867500543245654
    vertex 797.6469679785431 358.6076376028557 43.91511203914073
  endloop
endfacet
facet normal -1.0358243115073125e-31 1.0 4.066723998307548e-31
  outer loop
    vertex 817.7837706518827 358.6076376028557 48.100437661699345
    vertex 797.6469679785431 358.6076376028557 43.91511203914073
    vertex 798.2381010962185 358.6076376028557 44.775887033037215
  endloop
endfacet
facet normal -1.0358243115073125e-31 1.0 4.066723998307548e-31
  outer loop
    vertex 817.7837706518827 358.6076376028557 48.100437661699345
    vertex 798.2381010962185 358.6076376028557 44.775887033037215
    vertex 799.0318861914336 358.6076376028557 45.45433284907726
  endloop
endfacet
facet normal -1.0358243115073125e-31 1.0 4.066723998307548e-31
  outer loop
    vertex 817.7837706518827 358.6076376028557 48.100437661699345
    vertex 799.0318861914336 358.6076376028557 45.45433284907726
    vertex 815.412493796414 358.6076376028557 56.10043766169933
  endloop
endfacet
facet normal -1.0358243115073125e-31 1.0 4.066723998307548e-31
  outer loop
    vertex 817.7837706518827 358.6076376028557 48.100437661699345
    vertex 815.412493796414 358.6076376028557 56.10043766169933
    vertex 843.2116499853789 358.6076376028557 48.100437661699345
  endloop
endfacet
facet normal -1.0358243115073125e-31 1.0 4.066723998307548e-31
  outer loop
    vertex 843.2116499853789 358.6076376028557 48.100437661699345
    vertex 815.412493796414 358.6076376028557 56.10043766169933
    vertex 844.2469244909943 358.6076376028557 48.23673488765152
  endloop
endfacet
facet normal -1.0358243115073125e-31 1.0 4.066723998307548e-31
  outer loop
    vertex 844.2469244909943 358.6076376028557 48.23673488765152
    vertex 815.412493796414 358.6076376028557 56.10043766169933
    vertex 845.2116499853788 358.6076376028557 48.63633587031749
  endloop
endfacet
facet normal -1.0358243115073125e-31 1.0 4.066723998307548e-31
  outer loop
    vertex 845.2116499853788 358.6076376028557 48.63633587031749
    vertex 815.412493796414 358.6076376028557 56.10043766169933
    vertex 846.0400763464629 358.6076376028557 49.27201130061531
  endloop
endfacet
facet normal -1.0358243115073125e-31 1.0 4.066723998307548e-31
  outer loop
    vertex 846.0400763464629 358.6076376028557 49.27201130061531
    vertex 815.412493796414 358.6076376028557 56.10043766169933
    vertex 842.6676319814159 358.60763760285545 50.42612423699602
  endloop
endfacet
facet normal -1.0358243115073125e-31 1.0 4.066723998307548e-31
  outer loop
    vertex 846.0400763464629 358.6076376028557 49.27201130061531
    vertex 842.6676319814159 358.60763760285545 50.42612423699602
    vertex 843.1011098552865 358.60763760285545 50.34343437227474
  endloop
endfacet
facet normal -1.0358243115073125e-31 1.0 4.066723998307548e-31
  outer loop
    vertex 846.0400763464629 358.6076376028557 49.27201130061531
    vertex 843.1011098552865 358.60763760285545 50.34343437227474
    vertex 846.6757498694122 358.6076376028557 50.10043766169934
  endloop
endfacet
facet normal -1.0358243115073125e-31 1.0 4.066723998307548e-31
  outer loop
    vertex 842.6676319814159 358.60763760285545 50.42612423699602
    vertex 815.412493796414 358.6076376028557 56.10043766169933
    vertex 842.2683409292437 358.60763760285545 50.61401731066806
  endloop
endfacet
facet normal -1.0358243115073125e-31 1.0 4.066723998307548e-31
  outer loop
    vertex 842.2683409292437 358.60763760285545 50.61401731066806
    vertex 815.412493796414 358.6076376028557 56.10043766169933
    vertex 841.9283179802027 358.60763760285545 50.895307658371955
  endloop
endfacet
facet normal -1.0358243115073125e-31 1.0 4.066723998307548e-31
  outer loop
    vertex 841.9283179802027 358.60763760285545 50.895307658371955
    vertex 815.412493796414 358.6076376028557 56.10043766169933
    vertex 841.6689304537264 358.60763760285545 51.252321537505466
  endloop
endfacet
facet normal -1.0358243115073125e-31 1.0 4.066723998307548e-31
  outer loop
    vertex 841.6689304537264 358.60763760285545 51.252321537505466
    vertex 815.412493796414 358.6076376028557 56.10043766169933
    vertex 841.5064819210423 358.60763760285545 51.66262437234876
  endloop
endfacet
facet normal -1.0358243115073125e-31 1.0 4.066723998307548e-31
  outer loop
    vertex 841.5064819210423 358.60763760285545 51.66262437234876
    vertex 815.412493796414 358.6076376028557 56.10043766169933
    vertex 841.4511723285298 358.60763760285545 52.10043766169934
  endloop
endfacet
facet normal -1.0358243115073125e-31 1.0 4.066723998307548e-31
  outer loop
    vertex 841.4511723285298 358.60763760285545 52.10043766169934
    vertex 815.412493796414 358.6076376028557 56.10043766169933
    vertex 841.5064819210423 358.60763760285545 52.53825095104992
  endloop
endfacet
facet normal -1.0358243115073125e-31 1.0 4.066723998307548e-31
  outer loop
    vertex 841.5064819210423 358.60763760285545 52.53825095104992
    vertex 815.412493796414 358.6076376028557 56.10043766169933
    vertex 841.6689304537264 358.60763760285545 52.9485537858932
  endloop
endfacet
facet normal -1.0358243115073125e-31 1.0 4.066723998307548e-31
  outer loop
    vertex 841.6689304537264 358.60763760285545 52.9485537858932
    vertex 815.412493796414 358.6076376028557 56.10043766169933
    vertex 841.9283179802027 358.60763760285545 53.305567665026715
  endloop
endfacet
facet normal -1.0358243115073125e-31 1.0 4.066723998307548e-31
  outer loop
    vertex 841.9283179802027 358.60763760285545 53.305567665026715
    vertex 815.412493796414 358.6076376028557 56.10043766169933
    vertex 842.2683409292437 358.60763760285545 53.5868580127307
  endloop
endfacet
facet normal -1.0358243115073125e-31 1.0 4.066723998307548e-31
  outer loop
    vertex 842.2683409292437 358.60763760285545 53.5868580127307
    vertex 815.412493796414 358.6076376028557 56.10043766169933
    vertex 842.6676319814159 358.60763760285545 53.77475108640265
  endloop
endfacet
facet normal -1.0358243115073125e-31 1.0 4.066723998307548e-31
  outer loop
    vertex 842.6676319814159 358.60763760285545 53.77475108640265
    vertex 815.412493796414 358.6076376028557 56.10043766169933
    vertex 843.1011098552865 358.60763760285545 53.857440951123934
  endloop
endfacet
facet normal -1.0358243115073125e-31 1.0 4.066723998307548e-31
  outer loop
    vertex 843.1011098552865 358.60763760285545 53.857440951123934
    vertex 815.412493796414 358.6076376028557 56.10043766169933
    vertex 846.6757498694122 358.6076376028557 54.10043766169933
  endloop
endfacet
facet normal -1.0358243115073125e-31 1.0 4.066723998307548e-31
  outer loop
    vertex 846.6757498694122 358.6076376028557 54.10043766169933
    vertex 815.412493796414 358.6076376028557 56.10043766169933
    vertex 846.0400763464629 358.6076376028557 54.92886402278336
  endloop
endfacet
facet normal -1.0358243115073125e-31 1.0 4.066723998307548e-31
  outer loop
    vertex 846.0400763464629 358.6076376028557 54.92886402278336
    vertex 815.412493796414 358.6076376028557 56.10043766169933
    vertex 845.2116499853788 358.6076376028557 55.564537545732556
  endloop
endfacet
facet normal -1.0358243115073125e-31 1.0 4.066723998307548e-31
  outer loop
    vertex 845.2116499853788 358.6076376028557 55.564537545732556
    vertex 815.412493796414 358.6076376028557 56.10043766169933
    vertex 844.2469244909943 358.6076376028557 55.96414234309578
  endloop
endfacet
facet normal -1.0358243115073125e-31 1.0 4.066723998307548e-31
  outer loop
    vertex 844.2469244909943 358.6076376028557 55.96414234309578
    vertex 815.412493796414 358.6076376028557 56.10043766169933
    vertex 843.2116499853789 358.6076376028557 56.10043766169933
  endloop
endfacet
facet normal -1.0358243115073125e-31 1.0 4.066723998307548e-31
  outer loop
    vertex 846.6757498694122 358.6076376028557 50.10043766169934
    vertex 843.5415324101549 358.60763760285545 50.371144475704114
    vertex 847.0753546667754 358.6076376028557 51.06516124873545
  endloop
endfacet
facet normal -1.0358243115073125e-31 1.0 4.066723998307548e-31
  outer loop
    vertex 843.5415324101549 358.60763760285545 50.371144475704114
    vertex 846.6757498694122 358.6076376028557 50.10043766169934
    vertex 843.1011098552865 358.60763760285545 50.34343437227474
  endloop
endfacet
facet normal -1.0358243115073125e-31 1.0 4.066723998307548e-31
  outer loop
    vertex 847.0753546667754 358.6076376028557 51.06516124873545
    vertex 843.5415324101549 358.60763760285545 50.371144475704114
    vertex 843.9612233075017 358.60763760285545 50.507510438909705
  endloop
endfacet
facet normal -1.0358243115073125e-31 1.0 4.066723998307548e-31
  outer loop
    vertex 847.0753546667754 358.6076376028557 51.06516124873545
    vertex 843.9612233075017 358.60763760285545 50.507510438909705
    vertex 844.3338213973983 358.60763760285545 50.74396775469864
  endloop
endfacet
facet normal -1.0358243115073125e-31 1.0 4.066723998307548e-31
  outer loop
    vertex 847.0753546667754 358.6076376028557 51.06516124873545
    vertex 844.3338213973983 358.60763760285545 50.74396775469864
    vertex 844.6359048576913 358.60763760285545 51.06565509593277
  endloop
endfacet
facet normal -1.0358243115073125e-31 1.0 4.066723998307548e-31
  outer loop
    vertex 847.0753546667754 358.6076376028557 51.06516124873545
    vertex 844.6359048576913 358.60763760285545 51.06565509593277
    vertex 847.2116499853787 358.6076376028557 52.10043766169934
  endloop
endfacet
facet normal -1.0358243115073125e-31 1.0 4.066723998307548e-31
  outer loop
    vertex 847.2116499853787 358.6076376028557 52.10043766169934
    vertex 844.6359048576913 358.60763760285545 51.06565509593277
    vertex 844.8484997344968 358.60763760285545 51.45236200071836
  endloop
endfacet
facet normal -1.0358243115073125e-31 1.0 4.066723998307548e-31
  outer loop
    vertex 847.2116499853787 358.6076376028557 52.10043766169934
    vertex 844.8484997344968 358.60763760285545 51.45236200071836
    vertex 844.958245902127 358.60763760285545 51.87979174015855
  endloop
endfacet
facet normal -1.0358243115073125e-31 1.0 4.066723998307548e-31
  outer loop
    vertex 847.2116499853787 358.6076376028557 52.10043766169934
    vertex 844.958245902127 358.60763760285545 51.87979174015855
    vertex 844.958245902127 358.60763760285545 52.32108358324012
  endloop
endfacet
facet normal -1.0358243115073125e-31 1.0 4.066723998307548e-31
  outer loop
    vertex 847.2116499853787 358.6076376028557 52.10043766169934
    vertex 844.958245902127 358.60763760285545 52.32108358324012
    vertex 847.0753546667754 358.6076376028557 53.13571407466322
  endloop
endfacet
facet normal -1.0358243115073125e-31 1.0 4.066723998307548e-31
  outer loop
    vertex 847.0753546667754 358.6076376028557 53.13571407466322
    vertex 844.958245902127 358.60763760285545 52.32108358324012
    vertex 844.8484997344968 358.60763760285545 52.74851332268031
  endloop
endfacet
facet normal -1.0358243115073125e-31 1.0 4.066723998307548e-31
  outer loop
    vertex 847.0753546667754 358.6076376028557 53.13571407466322
    vertex 844.8484997344968 358.60763760285545 52.74851332268031
    vertex 844.6359048576913 358.60763760285545 53.1352202274659
  endloop
endfacet
facet normal -1.0358243115073125e-31 1.0 4.066723998307548e-31
  outer loop
    vertex 847.0753546667754 358.6076376028557 53.13571407466322
    vertex 844.6359048576913 358.60763760285545 53.1352202274659
    vertex 844.3338213973983 358.60763760285545 53.45690756870003
  endloop
endfacet
facet normal -1.0358243115073125e-31 1.0 4.066723998307548e-31
  outer loop
    vertex 847.0753546667754 358.6076376028557 53.13571407466322
    vertex 844.3338213973983 358.60763760285545 53.45690756870003
    vertex 846.6757498694122 358.6076376028557 54.10043766169933
  endloop
endfacet
facet normal -1.0358243115073125e-31 1.0 4.066723998307548e-31
  outer loop
    vertex 846.6757498694122 358.6076376028557 54.10043766169933
    vertex 844.3338213973983 358.60763760285545 53.45690756870003
    vertex 843.9612233075017 358.60763760285545 53.693364884488965
  endloop
endfacet
facet normal -1.0358243115073125e-31 1.0 4.066723998307548e-31
  outer loop
    vertex 846.6757498694122 358.6076376028557 54.10043766169933
    vertex 843.9612233075017 358.60763760285545 53.693364884488965
    vertex 843.5415324101549 358.60763760285545 53.829730847694556
  endloop
endfacet
facet normal -1.0358243115073125e-31 1.0 4.066723998307548e-31
  outer loop
    vertex 846.6757498694122 358.6076376028557 54.10043766169933
    vertex 843.5415324101549 358.60763760285545 53.829730847694556
    vertex 843.1011098552865 358.60763760285545 53.857440951123934
  endloop
endfacet
facet normal -1.0358243115073125e-31 1.0 4.066723998307548e-31
  outer loop
    vertex 797.4078703833281 358.6076376028557 40.86299564509777
    vertex 801.1004769767524 358.6076376028557 40.33337478015305
    vertex 797.8577528906523 358.6076376028557 39.9206700530568
  endloop
endfacet
facet normal -1.0358243115073125e-31 1.0 4.066723998307548e-31
  outer loop
    vertex 801.1004769767524 358.6076376028557 40.33337478015305
    vertex 797.4078703833281 358.6076376028557 40.86299564509777
    vertex 800.6645172457291 358.6076376028557 40.41653808180045
  endloop
endfacet
facet normal -1.0358243115073125e-31 1.0 4.066723998307548e-31
  outer loop
    vertex 800.6645172457291 358.6076376028557 40.41653808180045
    vertex 797.4078703833281 358.6076376028557 40.86299564509777
    vertex 800.2629402585872 358.6076376028557 40.60550684035281
  endloop
endfacet
facet normal -1.0358243115073125e-31 1.0 4.066723998307548e-31
  outer loop
    vertex 800.2629402585872 358.6076376028557 40.60550684035281
    vertex 797.4078703833281 358.6076376028557 40.86299564509777
    vertex 799.920966480214 358.6076376028557 40.888407761373905
  endloop
endfacet
facet normal -1.0358243115073125e-31 1.0 4.066723998307548e-31
  outer loop
    vertex 799.920966480214 358.6076376028557 40.888407761373905
    vertex 797.4078703833281 358.6076376028557 40.86299564509777
    vertex 797.2172041845976 358.6076376028557 41.88965084224133
  endloop
endfacet
facet normal -1.0358243115073125e-31 1.0 4.066723998307548e-31
  outer loop
    vertex 799.920966480214 358.6076376028557 40.888407761373905
    vertex 797.2172041845976 358.6076376028557 41.88965084224133
    vertex 799.6600976379118 358.6076376028557 41.247465951355274
  endloop
endfacet
facet normal -1.0358243115073125e-31 1.0 4.066723998307548e-31
  outer loop
    vertex 799.6600976379118 358.6076376028557 41.247465951355274
    vertex 797.2172041845976 358.6076376028557 41.88965084224133
    vertex 799.4967189918182 358.6076376028557 41.660118011288674
  endloop
endfacet
facet normal -1.0358243115073125e-31 1.0 4.066723998307548e-31
  outer loop
    vertex 799.4967189918182 358.6076376028557 41.660118011288674
    vertex 797.2172041845976 358.6076376028557 41.88965084224133
    vertex 799.4410967400686 358.6076376028557 42.10043766169935
  endloop
endfacet
facet normal -1.0358243115073125e-31 1.0 4.066723998307548e-31
  outer loop
    vertex 799.4410967400686 358.6076376028557 42.10043766169935
    vertex 797.2172041845976 358.6076376028557 41.88965084224133
    vertex 797.2987624121367 358.6076376028557 42.93067218928723
  endloop
endfacet
facet normal -1.0358243115073125e-31 1.0 4.066723998307548e-31
  outer loop
    vertex 799.4410967400686 358.6076376028557 42.10043766169935
    vertex 797.2987624121367 358.6076376028557 42.93067218928723
    vertex 799.4967189918182 358.6076376028557 42.54075731211003
  endloop
endfacet
facet normal -1.0358243115073125e-31 1.0 4.066723998307548e-31
  outer loop
    vertex 799.4967189918182 358.6076376028557 42.54075731211003
    vertex 797.2987624121367 358.6076376028557 42.93067218928723
    vertex 799.6600976379118 358.6076376028557 42.953409372043346
  endloop
endfacet
facet normal -1.0358243115073125e-31 1.0 4.066723998307548e-31
  outer loop
    vertex 799.6600976379118 358.6076376028557 42.953409372043346
    vertex 797.2987624121367 358.6076376028557 42.93067218928723
    vertex 797.6469679785431 358.6076376028557 43.91511203914073
  endloop
endfacet
facet normal -1.0358243115073125e-31 1.0 4.066723998307548e-31
  outer loop
    vertex 799.6600976379118 358.6076376028557 42.953409372043346
    vertex 797.6469679785431 358.6076376028557 43.91511203914073
    vertex 799.920966480214 358.6076376028557 43.3124675620248
  endloop
endfacet
facet normal -1.0358243115073125e-31 1.0 4.066723998307548e-31
  outer loop
    vertex 799.920966480214 358.6076376028557 43.3124675620248
    vertex 797.6469679785431 358.6076376028557 43.91511203914073
    vertex 800.2629402585872 358.6076376028557 43.595368483045895
  endloop
endfacet
facet normal -1.0358243115073125e-31 1.0 4.066723998307548e-31
  outer loop
    vertex 800.2629402585872 358.6076376028557 43.595368483045895
    vertex 797.6469679785431 358.6076376028557 43.91511203914073
    vertex 800.6645172457291 358.6076376028557 43.78433724159817
  endloop
endfacet
facet normal -1.0358243115073125e-31 1.0 4.066723998307548e-31
  outer loop
    vertex 800.6645172457291 358.6076376028557 43.78433724159817
    vertex 797.6469679785431 358.6076376028557 43.91511203914073
    vertex 801.1004769767524 358.6076376028557 43.867500543245654
  endloop
endfacet
facet normal 0.382685405291861 0.0 0.9238787152957926
  outer loop
    vertex 845.2116499853788 345.1076376028557 55.564537545732556
    vertex 844.2469244909943 358.6076376028557 55.96414234309578
    vertex 844.2469244909943 345.1076376028557 55.96414234309578
  endloop
endfacet
facet normal 0.382685405291861 0.0 0.9238787152957926
  outer loop
    vertex 844.2469244909943 358.6076376028557 55.96414234309578
    vertex 845.2116499853788 345.1076376028557 55.564537545732556
    vertex 845.2116499853788 358.6076376028557 55.564537545732556
  endloop
endfacet
facet normal 0.991445035725498 0.0 0.13052486788066905
  outer loop
    vertex 847.2116499853787 358.6076376028557 52.10043766169934
    vertex 847.0753546667754 345.1076376028557 53.13571407466322
    vertex 847.2116499853787 345.1076376028557 52.10043766169934
  endloop
endfacet
facet normal 0.991445035725498 0.0 0.13052486788066905
  outer loop
    vertex 847.0753546667754 345.1076376028557 53.13571407466322
    vertex 847.2116499853787 358.6076376028557 52.10043766169934
    vertex 847.0753546667754 358.6076376028557 53.13571407466322
  endloop
endfacet
facet normal -0.7601687211309238 0.0 -0.649725723220326
  outer loop
    vertex 797.8577528906523 358.6076376028557 39.9206700530568
    vertex 798.5362044287382 345.1076376028557 39.12689258723641
    vertex 797.8577528906523 345.1076376028557 39.9206700530568
  endloop
endfacet
facet normal -0.7601687211309238 0.0 -0.649725723220326
  outer loop
    vertex 798.5362044287382 345.1076376028557 39.12689258723641
    vertex 797.8577528906523 358.6076376028557 39.9206700530568
    vertex 798.5362044287382 358.6076376028557 39.12689258723641
  endloop
endfacet
facet normal -0.902430327898562 0.0 -0.430835819412562
  outer loop
    vertex 797.4078703833281 358.6076376028557 40.86299564509777
    vertex 797.8577528906523 345.1076376028557 39.9206700530568
    vertex 797.4078703833281 345.1076376028557 40.86299564509777
  endloop
endfacet
facet normal -0.902430327898562 0.0 -0.430835819412562
  outer loop
    vertex 797.8577528906523 345.1076376028557 39.9206700530568
    vertex 797.4078703833281 358.6076376028557 40.86299564509777
    vertex 797.8577528906523 358.6076376028557 39.9206700530568
  endloop
endfacet
facet normal -0.8243322787352753 0.0 0.566106257018158
  outer loop
    vertex 798.2381010962185 358.6076376028557 44.775887033037215
    vertex 797.6469679785431 345.1076376028557 43.91511203914073
    vertex 798.2381010962185 345.1076376028557 44.775887033037215
  endloop
endfacet
facet normal -0.8243322787352753 0.0 0.566106257018158
  outer loop
    vertex 797.6469679785431 345.1076376028557 43.91511203914073
    vertex 798.2381010962185 358.6076376028557 44.775887033037215
    vertex 797.6469679785431 358.6076376028557 43.91511203914073
  endloop
endfacet
facet normal 0.38268228710513247 0.0 -0.9238800068926619
  outer loop
    vertex 845.2116499853788 358.6076376028557 48.63633587031749
    vertex 844.2469244909943 345.1076376028557 48.23673488765152
    vertex 844.2469244909943 358.6076376028557 48.23673488765152
  endloop
endfacet
facet normal 0.38268228710513247 0.0 -0.9238800068926619
  outer loop
    vertex 844.2469244909943 345.1076376028557 48.23673488765152
    vertex 845.2116499853788 358.6076376028557 48.63633587031749
    vertex 845.2116499853788 345.1076376028557 48.63633587031749
  endloop
endfacet
facet normal -0.5358257897050273 0.0 0.8443285634674359
  outer loop
    vertex 844.3338213973983 345.1076376028557 50.74396775469864
    vertex 843.9612233075017 358.60763760285545 50.507510438909705
    vertex 843.9612233075017 345.1076376028557 50.507510438909705
  endloop
endfacet
facet normal -0.5358257897050273 0.0 0.8443285634674359
  outer loop
    vertex 843.9612233075017 358.60763760285545 50.507510438909705
    vertex 844.3338213973983 345.1076376028557 50.74396775469864
    vertex 844.3338213973983 358.60763760285545 50.74396775469864
  endloop
endfacet
facet normal -0.8763057646540204 0.0 0.48175533918591146
  outer loop
    vertex 844.8484997344968 358.60763760285545 51.45236200071836
    vertex 844.6359048576913 345.1076376028557 51.06565509593277
    vertex 844.8484997344968 345.1076376028557 51.45236200071836
  endloop
endfacet
facet normal -0.8763057646540204 0.0 0.48175533918591146
  outer loop
    vertex 844.6359048576913 345.1076376028557 51.06565509593277
    vertex 844.8484997344968 358.60763760285545 51.45236200071836
    vertex 844.6359048576913 358.60763760285545 51.06565509593277
  endloop
endfacet
facet normal -0.942762828507701 0.0 0.3334640148264265
  outer loop
    vertex 797.6469679785431 358.6076376028557 43.91511203914073
    vertex 797.2987624121367 345.1076376028557 42.93067218928723
    vertex 797.6469679785431 345.1076376028557 43.91511203914073
  endloop
endfacet
facet normal -0.942762828507701 0.0 0.3334640148264265
  outer loop
    vertex 797.2987624121367 345.1076376028557 42.93067218928723
    vertex 797.6469679785431 358.6076376028557 43.91511203914073
    vertex 797.2987624121367 358.6076376028557 42.93067218928723
  endloop
endfacet
facet normal -0.9685826898366993 0.0 0.24869172271851925
  outer loop
    vertex 844.958245902127 358.60763760285545 51.87979174015855
    vertex 844.8484997344968 345.1076376028557 51.45236200071836
    vertex 844.958245902127 345.1076376028557 51.87979174015855
  endloop
endfacet
facet normal -0.9685826898366993 0.0 0.24869172271851925
  outer loop
    vertex 844.8484997344968 345.1076376028557 51.45236200071836
    vertex 844.958245902127 358.60763760285545 51.87979174015855
    vertex 844.8484997344968 358.60763760285545 51.45236200071836
  endloop
endfacet
facet normal 0.7933535167242198 0.0 0.6087611990767096
  outer loop
    vertex 846.6757498694122 358.6076376028557 54.10043766169933
    vertex 846.0400763464629 345.1076376028557 54.92886402278336
    vertex 846.6757498694122 345.1076376028557 54.10043766169933
  endloop
endfacet
facet normal 0.7933535167242198 0.0 0.6087611990767096
  outer loop
    vertex 846.0400763464629 345.1076376028557 54.92886402278336
    vertex 846.6757498694122 358.6076376028557 54.10043766169933
    vertex 846.0400763464629 358.6076376028557 54.92886402278336
  endloop
endfacet
facet normal 0.9238784477943167 0.0 -0.3826860510930128
  outer loop
    vertex 846.6757498694122 358.6076376028557 50.10043766169934
    vertex 847.0753546667754 345.1076376028557 51.06516124873545
    vertex 846.6757498694122 345.1076376028557 50.10043766169934
  endloop
endfacet
facet normal 0.9238784477943167 0.0 -0.3826860510930128
  outer loop
    vertex 847.0753546667754 345.1076376028557 51.06516124873545
    vertex 846.6757498694122 358.6076376028557 50.10043766169934
    vertex 847.0753546667754 358.6076376028557 51.06516124873545
  endloop
endfacet
facet normal 0.5449417931093802 0.0 -0.8384738768278552
  outer loop
    vertex 817.7837706518827 358.6076376028557 48.100437661699345
    vertex 803.3914137793242 345.1076376028557 38.746542474321444
    vertex 803.3914137793242 358.6076376028557 38.746542474321444
  endloop
endfacet
facet normal 0.5449417931093802 0.0 -0.8384738768278552
  outer loop
    vertex 803.3914137793242 345.1076376028557 38.746542474321444
    vertex 817.7837706518827 358.6076376028557 48.100437661699345
    vertex 817.7837706518827 345.1076376028557 48.100437661699345
  endloop
endfacet
facet normal -0.5449419259381688 0.0 0.8384737904996192
  outer loop
    vertex 815.412493796414 345.1076376028557 56.10043766169933
    vertex 799.0318861914336 358.6076376028557 45.45433284907726
    vertex 799.0318861914336 345.1076376028557 45.45433284907726
  endloop
endfacet
facet normal -0.5449419259381688 0.0 0.8384737904996192
  outer loop
    vertex 799.0318861914336 358.6076376028557 45.45433284907726
    vertex 815.412493796414 345.1076376028557 56.10043766169933
    vertex 815.412493796414 358.6076376028557 56.10043766169933
  endloop
endfacet
facet normal -0.9685826898366993 -0.0 -0.24869172271851925
  outer loop
    vertex 844.8484997344968 358.60763760285545 52.74851332268031
    vertex 844.958245902127 345.1076376028557 52.32108358324012
    vertex 844.8484997344968 345.1076376028557 52.74851332268031
  endloop
endfacet
facet normal -0.9685826898366993 -0.0 -0.24869172271851925
  outer loop
    vertex 844.958245902127 345.1076376028557 52.32108358324012
    vertex 844.8484997344968 358.60763760285545 52.74851332268031
    vertex 844.958245902127 358.60763760285545 52.32108358324012
  endloop
endfacet
facet normal -0.8763057646540204 -0.0 -0.48175533918591146
  outer loop
    vertex 844.6359048576913 358.60763760285545 53.1352202274659
    vertex 844.8484997344968 345.1076376028557 52.74851332268031
    vertex 844.6359048576913 345.1076376028557 53.1352202274659
  endloop
endfacet
facet normal -0.8763057646540204 -0.0 -0.48175533918591146
  outer loop
    vertex 844.8484997344968 345.1076376028557 52.74851332268031
    vertex 844.6359048576913 358.60763760285545 53.1352202274659
    vertex 844.8484997344968 358.60763760285545 52.74851332268031
  endloop
endfacet
facet normal -0.7289698265893106 -0.0 -0.6845458289423363
  outer loop
    vertex 844.3338213973983 358.60763760285545 53.45690756870003
    vertex 844.6359048576913 345.1076376028557 53.1352202274659
    vertex 844.3338213973983 345.1076376028557 53.45690756870003
  endloop
endfacet
facet normal -0.7289698265893106 -0.0 -0.6845458289423363
  outer loop
    vertex 844.6359048576913 345.1076376028557 53.1352202274659
    vertex 844.3338213973983 358.60763760285545 53.45690756870003
    vertex 844.6359048576913 358.60763760285545 53.1352202274659
  endloop
endfacet
facet normal -0.3090172492094371 -0.0 -0.9510564334943709
  outer loop
    vertex 843.9612233075017 358.60763760285545 53.693364884488965
    vertex 843.5415324101549 345.1076376028557 53.829730847694556
    vertex 843.5415324101549 358.60763760285545 53.829730847694556
  endloop
endfacet
facet normal -0.3090172492094371 -0.0 -0.9510564334943709
  outer loop
    vertex 843.5415324101549 345.1076376028557 53.829730847694556
    vertex 843.9612233075017 358.60763760285545 53.693364884488965
    vertex 843.9612233075017 345.1076376028557 53.693364884488965
  endloop
endfacet
facet normal 0.7933535167242198 0.0 -0.6087611990767096
  outer loop
    vertex 846.0400763464629 358.6076376028557 49.27201130061531
    vertex 846.6757498694122 345.1076376028557 50.10043766169934
    vertex 846.0400763464629 345.1076376028557 49.27201130061531
  endloop
endfacet
facet normal 0.7933535167242198 0.0 -0.6087611990767096
  outer loop
    vertex 846.6757498694122 345.1076376028557 50.10043766169934
    vertex 846.0400763464629 358.6076376028557 49.27201130061531
    vertex 846.6757498694122 358.6076376028557 50.10043766169934
  endloop
endfacet
facet normal 0.13052510425760006 0.0 0.9914450046061772
  outer loop
    vertex 844.2469244909943 345.1076376028557 55.96414234309578
    vertex 843.2116499853789 358.6076376028557 56.10043766169933
    vertex 843.2116499853789 345.1076376028557 56.10043766169933
  endloop
endfacet
facet normal 0.13052510425760006 0.0 0.9914450046061772
  outer loop
    vertex 843.2116499853789 358.6076376028557 56.10043766169933
    vertex 844.2469244909943 345.1076376028557 55.96414234309578
    vertex 844.2469244909943 358.6076376028557 55.96414234309578
  endloop
endfacet
facet normal -0.9969451304594406 0.0 0.07810510132641209
  outer loop
    vertex 797.2987624121367 358.6076376028557 42.93067218928723
    vertex 797.2172041845976 345.1076376028557 41.88965084224133
    vertex 797.2987624121367 345.1076376028557 42.93067218928723
  endloop
endfacet
facet normal -0.9969451304594406 0.0 0.07810510132641209
  outer loop
    vertex 797.2172041845976 345.1076376028557 41.88965084224133
    vertex 797.2987624121367 358.6076376028557 42.93067218928723
    vertex 797.2172041845976 358.6076376028557 41.88965084224133
  endloop
endfacet
facet normal -0.06279292323630545 -0.0 -0.99802657719694
  outer loop
    vertex 843.5415324101549 358.60763760285545 53.829730847694556
    vertex 843.1011098552865 345.1076376028557 53.857440951123934
    vertex 843.1011098552865 358.60763760285545 53.857440951123934
  endloop
endfacet
facet normal -0.06279292323630545 -0.0 -0.99802657719694
  outer loop
    vertex 843.1011098552865 345.1076376028557 53.857440951123934
    vertex 843.5415324101549 358.60763760285545 53.829730847694556
    vertex 843.5415324101549 345.1076376028557 53.829730847694556
  endloop
endfacet
facet normal 0.4257810850745499 0.0 -0.9048262085023505
  outer loop
    vertex 842.6676319814159 358.60763760285545 53.77475108640265
    vertex 842.2683409292437 345.1076376028557 53.5868580127307
    vertex 842.2683409292437 358.60763760285545 53.5868580127307
  endloop
endfacet
facet normal 0.4257810850745499 0.0 -0.9048262085023505
  outer loop
    vertex 842.2683409292437 345.1076376028557 53.5868580127307
    vertex 842.6676319814159 358.60763760285545 53.77475108640265
    vertex 842.6676319814159 345.1076376028557 53.77475108640265
  endloop
endfacet
facet normal 0.6374225111834699 0.0 -0.7705144659489265
  outer loop
    vertex 842.2683409292437 358.60763760285545 53.5868580127307
    vertex 841.9283179802027 345.1076376028557 53.305567665026715
    vertex 841.9283179802027 358.60763760285545 53.305567665026715
  endloop
endfacet
facet normal 0.6374225111834699 0.0 -0.7705144659489265
  outer loop
    vertex 841.9283179802027 345.1076376028557 53.305567665026715
    vertex 842.2683409292437 358.60763760285545 53.5868580127307
    vertex 842.2683409292437 345.1076376028557 53.5868580127307
  endloop
endfacet
facet normal 0.8090150976242207 0.0 -0.5877878629370231
  outer loop
    vertex 841.6689304537264 358.60763760285545 52.9485537858932
    vertex 841.9283179802027 345.1076376028557 53.305567665026715
    vertex 841.6689304537264 345.1076376028557 52.9485537858932
  endloop
endfacet
facet normal 0.8090150976242207 0.0 -0.5877878629370231
  outer loop
    vertex 841.9283179802027 345.1076376028557 53.305567665026715
    vertex 841.6689304537264 358.60763760285545 52.9485537858932
    vertex 841.9283179802027 358.60763760285545 53.305567665026715
  endloop
endfacet
facet normal 0.9297779221088244 0.0 -0.36812092518491385
  outer loop
    vertex 841.5064819210423 358.60763760285545 52.53825095104992
    vertex 841.6689304537264 345.1076376028557 52.9485537858932
    vertex 841.5064819210423 345.1076376028557 52.53825095104992
  endloop
endfacet
facet normal 0.9297779221088244 0.0 -0.36812092518491385
  outer loop
    vertex 841.6689304537264 345.1076376028557 52.9485537858932
    vertex 841.5064819210423 358.60763760285545 52.53825095104992
    vertex 841.6689304537264 358.60763760285545 52.9485537858932
  endloop
endfacet
facet normal 0.9238784477943167 0.0 0.3826860510930128
  outer loop
    vertex 847.0753546667754 358.6076376028557 53.13571407466322
    vertex 846.6757498694122 345.1076376028557 54.10043766169933
    vertex 847.0753546667754 345.1076376028557 53.13571407466322
  endloop
endfacet
facet normal 0.9238784477943167 0.0 0.3826860510930128
  outer loop
    vertex 846.6757498694122 345.1076376028557 54.10043766169933
    vertex 847.0753546667754 358.6076376028557 53.13571407466322
    vertex 846.6757498694122 358.6076376028557 54.10043766169933
  endloop
endfacet
facet normal 0.0 0.0 -1.0
  outer loop
    vertex 843.2116499853789 358.6076376028557 48.100437661699345
    vertex 817.7837706518827 345.1076376028557 48.100437661699345
    vertex 817.7837706518827 358.6076376028557 48.100437661699345
  endloop
endfacet
facet normal 0.0 0.0 -1.0
  outer loop
    vertex 817.7837706518827 345.1076376028557 48.100437661699345
    vertex 843.2116499853789 358.6076376028557 48.100437661699345
    vertex 843.2116499853789 345.1076376028557 48.100437661699345
  endloop
endfacet
facet normal 2.306175603787098e-31 -1.0 -5.1861121787691795e-31
  outer loop
    vertex 844.2469244909943 345.1076376028557 48.23673488765152
    vertex 817.7837706518827 345.1076376028557 48.100437661699345
    vertex 843.2116499853789 345.1076376028557 48.100437661699345
  endloop
endfacet
facet normal 2.306175603787098e-31 -1.0 -5.1861121787691795e-31
  outer loop
    vertex 846.6757498694122 345.1076376028557 50.10043766169934
    vertex 843.5415324101549 345.1076376028557 50.371144475704114
    vertex 843.1011098552865 345.1076376028557 50.34343437227474
  endloop
endfacet
facet normal 2.306175603787098e-31 -1.0 -5.1861121787691795e-31
  outer loop
    vertex 843.5415324101549 345.1076376028557 50.371144475704114
    vertex 846.6757498694122 345.1076376028557 50.10043766169934
    vertex 847.0753546667754 345.1076376028557 51.06516124873545
  endloop
endfacet
facet normal 2.306175603787098e-31 -1.0 -5.1861121787691795e-31
  outer loop
    vertex 843.5415324101549 345.1076376028557 50.371144475704114
    vertex 847.0753546667754 345.1076376028557 51.06516124873545
    vertex 843.9612233075017 345.1076376028557 50.507510438909705
  endloop
endfacet
facet normal 2.306175603787098e-31 -1.0 -5.1861121787691795e-31
  outer loop
    vertex 843.9612233075017 345.1076376028557 50.507510438909705
    vertex 847.0753546667754 345.1076376028557 51.06516124873545
    vertex 844.3338213973983 345.1076376028557 50.74396775469864
  endloop
endfacet
facet normal 2.306175603787098e-31 -1.0 -5.1861121787691795e-31
  outer loop
    vertex 844.3338213973983 345.1076376028557 50.74396775469864
    vertex 847.0753546667754 345.1076376028557 51.06516124873545
    vertex 844.6359048576913 345.1076376028557 51.06565509593277
  endloop
endfacet
facet normal 2.306175603787098e-31 -1.0 -5.1861121787691795e-31
  outer loop
    vertex 844.6359048576913 345.1076376028557 51.06565509593277
    vertex 847.0753546667754 345.1076376028557 51.06516124873545
    vertex 847.2116499853787 345.1076376028557 52.10043766169934
  endloop
endfacet
facet normal 2.306175603787098e-31 -1.0 -5.1861121787691795e-31
  outer loop
    vertex 844.6359048576913 345.1076376028557 51.06565509593277
    vertex 847.2116499853787 345.1076376028557 52.10043766169934
    vertex 844.8484997344968 345.1076376028557 51.45236200071836
  endloop
endfacet
facet normal 2.306175603787098e-31 -1.0 -5.1861121787691795e-31
  outer loop
    vertex 844.8484997344968 345.1076376028557 51.45236200071836
    vertex 847.2116499853787 345.1076376028557 52.10043766169934
    vertex 844.958245902127 345.1076376028557 51.87979174015855
  endloop
endfacet
facet normal 2.306175603787098e-31 -1.0 -5.1861121787691795e-31
  outer loop
    vertex 844.958245902127 345.1076376028557 51.87979174015855
    vertex 847.2116499853787 345.1076376028557 52.10043766169934
    vertex 844.958245902127 345.1076376028557 52.32108358324012
  endloop
endfacet
facet normal 2.306175603787098e-31 -1.0 -5.1861121787691795e-31
  outer loop
    vertex 844.958245902127 345.1076376028557 52.32108358324012
    vertex 847.2116499853787 345.1076376028557 52.10043766169934
    vertex 847.0753546667754 345.1076376028557 53.13571407466322
  endloop
endfacet
facet normal 2.306175603787098e-31 -1.0 -5.1861121787691795e-31
  outer loop
    vertex 844.958245902127 345.1076376028557 52.32108358324012
    vertex 847.0753546667754 345.1076376028557 53.13571407466322
    vertex 844.8484997344968 345.1076376028557 52.74851332268031
  endloop
endfacet
facet normal 2.306175603787098e-31 -1.0 -5.1861121787691795e-31
  outer loop
    vertex 844.8484997344968 345.1076376028557 52.74851332268031
    vertex 847.0753546667754 345.1076376028557 53.13571407466322
    vertex 844.6359048576913 345.1076376028557 53.1352202274659
  endloop
endfacet
facet normal 2.306175603787098e-31 -1.0 -5.1861121787691795e-31
  outer loop
    vertex 844.6359048576913 345.1076376028557 53.1352202274659
    vertex 847.0753546667754 345.1076376028557 53.13571407466322
    vertex 844.3338213973983 345.1076376028557 53.45690756870003
  endloop
endfacet
facet normal 2.306175603787098e-31 -1.0 -5.1861121787691795e-31
  outer loop
    vertex 844.3338213973983 345.1076376028557 53.45690756870003
    vertex 847.0753546667754 345.1076376028557 53.13571407466322
    vertex 846.6757498694122 345.1076376028557 54.10043766169933
  endloop
endfacet
facet normal 2.306175603787098e-31 -1.0 -5.1861121787691795e-31
  outer loop
    vertex 844.3338213973983 345.1076376028557 53.45690756870003
    vertex 846.6757498694122 345.1076376028557 54.10043766169933
    vertex 843.9612233075017 345.1076376028557 53.693364884488965
  endloop
endfacet
facet normal 2.306175603787098e-31 -1.0 -5.1861121787691795e-31
  outer loop
    vertex 843.9612233075017 345.1076376028557 53.693364884488965
    vertex 846.6757498694122 345.1076376028557 54.10043766169933
    vertex 843.5415324101549 345.1076376028557 53.829730847694556
  endloop
endfacet
facet normal 2.306175603787098e-31 -1.0 -5.1861121787691795e-31
  outer loop
    vertex 843.5415324101549 345.1076376028557 53.829730847694556
    vertex 846.6757498694122 345.1076376028557 54.10043766169933
    vertex 843.1011098552865 345.1076376028557 53.857440951123934
  endloop
endfacet
facet normal 2.306175603787098e-31 -1.0 -5.1861121787691795e-31
  outer loop
    vertex 802.4490920019806 345.1076376028557 38.296658059648536
    vertex 800.3814192724883 345.1076376028557 38.187547227434216
    vertex 801.4224348974883 345.1076376028557 38.10599567561533
  endloop
endfacet
facet normal 2.306175603787098e-31 -1.0 -5.1861121787691795e-31
  outer loop
    vertex 800.3814192724883 345.1076376028557 38.187547227434216
    vertex 802.4490920019806 345.1076376028557 38.296658059648536
    vertex 799.3969756079375 345.1076376028557 38.53575565486342
  endloop
endfacet
facet normal 2.306175603787098e-31 -1.0 -5.1861121787691795e-31
  outer loop
    vertex 799.3969756079375 345.1076376028557 38.53575565486342
    vertex 802.4490920019806 345.1076376028557 38.296658059648536
    vertex 803.3914137793242 345.1076376028557 38.746542474321444
  endloop
endfacet
facet normal 2.306175603787098e-31 -1.0 -5.1861121787691795e-31
  outer loop
    vertex 799.3969756079375 345.1076376028557 38.53575565486342
    vertex 803.3914137793242 345.1076376028557 38.746542474321444
    vertex 798.5362044287382 345.1076376028557 39.12689258723641
  endloop
endfacet
facet normal 2.306175603787098e-31 -1.0 -5.1861121787691795e-31
  outer loop
    vertex 798.5362044287382 345.1076376028557 39.12689258723641
    vertex 803.3914137793242 345.1076376028557 38.746542474321444
    vertex 801.965515098843 345.1076376028557 40.498390304562086
  endloop
endfacet
facet normal 2.306175603787098e-31 -1.0 -5.1861121787691795e-31
  outer loop
    vertex 801.965515098843 345.1076376028557 40.498390304562086
    vertex 803.3914137793242 345.1076376028557 38.746542474321444
    vertex 817.7837706518827 345.1076376028557 48.100437661699345
  endloop
endfacet
facet normal 2.306175603787098e-31 -1.0 -5.1861121787691795e-31
  outer loop
    vertex 798.5362044287382 345.1076376028557 39.12689258723641
    vertex 801.965515098843 345.1076376028557 40.498390304562086
    vertex 801.5434211293073 345.1076376028557 40.36124353515897
  endloop
endfacet
facet normal 2.306175603787098e-31 -1.0 -5.1861121787691795e-31
  outer loop
    vertex 798.5362044287382 345.1076376028557 39.12689258723641
    vertex 801.5434211293073 345.1076376028557 40.36124353515897
    vertex 797.8577528906523 345.1076376028557 39.9206700530568
  endloop
endfacet
facet normal 2.306175603787098e-31 -1.0 -5.1861121787691795e-31
  outer loop
    vertex 797.8577528906523 345.1076376028557 39.9206700530568
    vertex 801.5434211293073 345.1076376028557 40.36124353515897
    vertex 801.1004769767524 345.1076376028557 40.33337478015305
  endloop
endfacet
facet normal 2.306175603787098e-31 -1.0 -5.1861121787691795e-31
  outer loop
    vertex 801.965515098843 345.1076376028557 40.498390304562086
    vertex 817.7837706518827 345.1076376028557 48.100437661699345
    vertex 802.3402424090832 345.1076376028557 40.73620138246233
  endloop
endfacet
facet normal 2.306175603787098e-31 -1.0 -5.1861121787691795e-31
  outer loop
    vertex 802.3402424090832 345.1076376028557 40.73620138246233
    vertex 817.7837706518827 345.1076376028557 48.100437661699345
    vertex 802.6440592139606 345.1076376028557 41.05973032383004
  endloop
endfacet
facet normal 2.306175603787098e-31 -1.0 -5.1861121787691795e-31
  outer loop
    vertex 802.6440592139606 345.1076376028557 41.05973032383004
    vertex 817.7837706518827 345.1076376028557 48.100437661699345
    vertex 802.8578715392146 345.1076376028557 41.44865174915525
  endloop
endfacet
facet normal 2.306175603787098e-31 -1.0 -5.1861121787691795e-31
  outer loop
    vertex 802.8578715392146 345.1076376028557 41.44865174915525
    vertex 817.7837706518827 345.1076376028557 48.100437661699345
    vertex 802.9682420874294 345.1076376028557 41.87852874506148
  endloop
endfacet
facet normal 2.306175603787098e-31 -1.0 -5.1861121787691795e-31
  outer loop
    vertex 802.9682420874294 345.1076376028557 41.87852874506148
    vertex 817.7837706518827 345.1076376028557 48.100437661699345
    vertex 802.9682420874294 345.1076376028557 42.322346578337225
  endloop
endfacet
facet normal 2.306175603787098e-31 -1.0 -5.1861121787691795e-31
  outer loop
    vertex 802.9682420874294 345.1076376028557 42.322346578337225
    vertex 817.7837706518827 345.1076376028557 48.100437661699345
    vertex 802.8578715392146 345.1076376028557 42.75222357424336
  endloop
endfacet
facet normal 2.306175603787098e-31 -1.0 -5.1861121787691795e-31
  outer loop
    vertex 802.8578715392146 345.1076376028557 42.75222357424336
    vertex 817.7837706518827 345.1076376028557 48.100437661699345
    vertex 802.6440592139606 345.1076376028557 43.14114499956867
  endloop
endfacet
facet normal 2.306175603787098e-31 -1.0 -5.1861121787691795e-31
  outer loop
    vertex 802.6440592139606 345.1076376028557 43.14114499956867
    vertex 817.7837706518827 345.1076376028557 48.100437661699345
    vertex 802.3402424090832 345.1076376028557 43.46467394093638
  endloop
endfacet
facet normal 2.306175603787098e-31 -1.0 -5.1861121787691795e-31
  outer loop
    vertex 802.3402424090832 345.1076376028557 43.46467394093638
    vertex 817.7837706518827 345.1076376028557 48.100437661699345
    vertex 801.965515098843 345.1076376028557 43.70248501883662
  endloop
endfacet
facet normal 2.306175603787098e-31 -1.0 -5.1861121787691795e-31
  outer loop
    vertex 801.965515098843 345.1076376028557 43.70248501883662
    vertex 817.7837706518827 345.1076376028557 48.100437661699345
    vertex 801.5434211293073 345.1076376028557 43.83963178823974
  endloop
endfacet
facet normal 2.306175603787098e-31 -1.0 -5.1861121787691795e-31
  outer loop
    vertex 801.5434211293073 345.1076376028557 43.83963178823974
    vertex 817.7837706518827 345.1076376028557 48.100437661699345
    vertex 801.1004769767524 345.1076376028557 43.867500543245654
  endloop
endfacet
facet normal 2.306175603787098e-31 -1.0 -5.1861121787691795e-31
  outer loop
    vertex 801.1004769767524 345.1076376028557 43.867500543245654
    vertex 817.7837706518827 345.1076376028557 48.100437661699345
    vertex 797.6469679785431 345.1076376028557 43.91511203914073
  endloop
endfacet
facet normal 2.306175603787098e-31 -1.0 -5.1861121787691795e-31
  outer loop
    vertex 797.6469679785431 345.1076376028557 43.91511203914073
    vertex 817.7837706518827 345.1076376028557 48.100437661699345
    vertex 798.2381010962185 345.1076376028557 44.775887033037215
  endloop
endfacet
facet normal 2.306175603787098e-31 -1.0 -5.1861121787691795e-31
  outer loop
    vertex 798.2381010962185 345.1076376028557 44.775887033037215
    vertex 817.7837706518827 345.1076376028557 48.100437661699345
    vertex 799.0318861914336 345.1076376028557 45.45433284907726
  endloop
endfacet
facet normal 2.306175603787098e-31 -1.0 -5.1861121787691795e-31
  outer loop
    vertex 799.0318861914336 345.1076376028557 45.45433284907726
    vertex 817.7837706518827 345.1076376028557 48.100437661699345
    vertex 815.412493796414 345.1076376028557 56.10043766169933
  endloop
endfacet
facet normal 2.306175603787098e-31 -1.0 -5.1861121787691795e-31
  outer loop
    vertex 815.412493796414 345.1076376028557 56.10043766169933
    vertex 817.7837706518827 345.1076376028557 48.100437661699345
    vertex 844.2469244909943 345.1076376028557 48.23673488765152
  endloop
endfacet
facet normal 2.306175603787098e-31 -1.0 -5.1861121787691795e-31
  outer loop
    vertex 815.412493796414 345.1076376028557 56.10043766169933
    vertex 844.2469244909943 345.1076376028557 48.23673488765152
    vertex 845.2116499853788 345.1076376028557 48.63633587031749
  endloop
endfacet
facet normal 2.306175603787098e-31 -1.0 -5.1861121787691795e-31
  outer loop
    vertex 815.412493796414 345.1076376028557 56.10043766169933
    vertex 845.2116499853788 345.1076376028557 48.63633587031749
    vertex 846.0400763464629 345.1076376028557 49.27201130061531
  endloop
endfacet
facet normal 2.306175603787098e-31 -1.0 -5.1861121787691795e-31
  outer loop
    vertex 815.412493796414 345.1076376028557 56.10043766169933
    vertex 846.0400763464629 345.1076376028557 49.27201130061531
    vertex 842.6676319814159 345.1076376028557 50.42612423699602
  endloop
endfacet
facet normal 2.306175603787098e-31 -1.0 -5.1861121787691795e-31
  outer loop
    vertex 842.6676319814159 345.1076376028557 50.42612423699602
    vertex 846.0400763464629 345.1076376028557 49.27201130061531
    vertex 843.1011098552865 345.1076376028557 50.34343437227474
  endloop
endfacet
facet normal 2.306175603787098e-31 -1.0 -5.1861121787691795e-31
  outer loop
    vertex 843.1011098552865 345.1076376028557 50.34343437227474
    vertex 846.0400763464629 345.1076376028557 49.27201130061531
    vertex 846.6757498694122 345.1076376028557 50.10043766169934
  endloop
endfacet
facet normal 2.306175603787098e-31 -1.0 -5.1861121787691795e-31
  outer loop
    vertex 815.412493796414 345.1076376028557 56.10043766169933
    vertex 842.6676319814159 345.1076376028557 50.42612423699602
    vertex 842.2683409292437 345.1076376028557 50.61401731066806
  endloop
endfacet
facet normal 2.306175603787098e-31 -1.0 -5.1861121787691795e-31
  outer loop
    vertex 815.412493796414 345.1076376028557 56.10043766169933
    vertex 842.2683409292437 345.1076376028557 50.61401731066806
    vertex 841.9283179802027 345.1076376028557 50.895307658371955
  endloop
endfacet
facet normal 2.306175603787098e-31 -1.0 -5.1861121787691795e-31
  outer loop
    vertex 815.412493796414 345.1076376028557 56.10043766169933
    vertex 841.9283179802027 345.1076376028557 50.895307658371955
    vertex 841.6689304537264 345.1076376028557 51.252321537505466
  endloop
endfacet
facet normal 2.306175603787098e-31 -1.0 -5.1861121787691795e-31
  outer loop
    vertex 815.412493796414 345.1076376028557 56.10043766169933
    vertex 841.6689304537264 345.1076376028557 51.252321537505466
    vertex 841.5064819210423 345.1076376028557 51.66262437234876
  endloop
endfacet
facet normal 2.306175603787098e-31 -1.0 -5.1861121787691795e-31
  outer loop
    vertex 815.412493796414 345.1076376028557 56.10043766169933
    vertex 841.5064819210423 345.1076376028557 51.66262437234876
    vertex 841.4511723285298 345.1076376028557 52.10043766169934
  endloop
endfacet
facet normal 2.306175603787098e-31 -1.0 -5.1861121787691795e-31
  outer loop
    vertex 815.412493796414 345.1076376028557 56.10043766169933
    vertex 841.4511723285298 345.1076376028557 52.10043766169934
    vertex 841.5064819210423 345.1076376028557 52.53825095104992
  endloop
endfacet
facet normal 2.306175603787098e-31 -1.0 -5.1861121787691795e-31
  outer loop
    vertex 815.412493796414 345.1076376028557 56.10043766169933
    vertex 841.5064819210423 345.1076376028557 52.53825095104992
    vertex 841.6689304537264 345.1076376028557 52.9485537858932
  endloop
endfacet
facet normal 2.306175603787098e-31 -1.0 -5.1861121787691795e-31
  outer loop
    vertex 815.412493796414 345.1076376028557 56.10043766169933
    vertex 841.6689304537264 345.1076376028557 52.9485537858932
    vertex 841.9283179802027 345.1076376028557 53.305567665026715
  endloop
endfacet
facet normal 2.306175603787098e-31 -1.0 -5.1861121787691795e-31
  outer loop
    vertex 815.412493796414 345.1076376028557 56.10043766169933
    vertex 841.9283179802027 345.1076376028557 53.305567665026715
    vertex 842.2683409292437 345.1076376028557 53.5868580127307
  endloop
endfacet
facet normal 2.306175603787098e-31 -1.0 -5.1861121787691795e-31
  outer loop
    vertex 815.412493796414 345.1076376028557 56.10043766169933
    vertex 842.2683409292437 345.1076376028557 53.5868580127307
    vertex 842.6676319814159 345.1076376028557 53.77475108640265
  endloop
endfacet
facet normal 2.306175603787098e-31 -1.0 -5.1861121787691795e-31
  outer loop
    vertex 815.412493796414 345.1076376028557 56.10043766169933
    vertex 842.6676319814159 345.1076376028557 53.77475108640265
    vertex 843.1011098552865 345.1076376028557 53.857440951123934
  endloop
endfacet
facet normal 2.306175603787098e-31 -1.0 -5.1861121787691795e-31
  outer loop
    vertex 815.412493796414 345.1076376028557 56.10043766169933
    vertex 843.1011098552865 345.1076376028557 53.857440951123934
    vertex 846.6757498694122 345.1076376028557 54.10043766169933
  endloop
endfacet
facet normal 2.306175603787098e-31 -1.0 -5.1861121787691795e-31
  outer loop
    vertex 815.412493796414 345.1076376028557 56.10043766169933
    vertex 846.6757498694122 345.1076376028557 54.10043766169933
    vertex 846.0400763464629 345.1076376028557 54.92886402278336
  endloop
endfacet
facet normal 2.306175603787098e-31 -1.0 -5.1861121787691795e-31
  outer loop
    vertex 815.412493796414 345.1076376028557 56.10043766169933
    vertex 846.0400763464629 345.1076376028557 54.92886402278336
    vertex 845.2116499853788 345.1076376028557 55.564537545732556
  endloop
endfacet
facet normal 2.306175603787098e-31 -1.0 -5.1861121787691795e-31
  outer loop
    vertex 815.412493796414 345.1076376028557 56.10043766169933
    vertex 845.2116499853788 345.1076376028557 55.564537545732556
    vertex 844.2469244909943 345.1076376028557 55.96414234309578
  endloop
endfacet
facet normal 2.306175603787098e-31 -1.0 -5.1861121787691795e-31
  outer loop
    vertex 815.412493796414 345.1076376028557 56.10043766169933
    vertex 844.2469244909943 345.1076376028557 55.96414234309578
    vertex 843.2116499853789 345.1076376028557 56.10043766169933
  endloop
endfacet
facet normal 2.306175603787098e-31 -1.0 -5.1861121787691795e-31
  outer loop
    vertex 801.1004769767524 345.1076376028557 40.33337478015305
    vertex 797.4078703833281 345.1076376028557 40.86299564509777
    vertex 797.8577528906523 345.1076376028557 39.9206700530568
  endloop
endfacet
facet normal 2.306175603787098e-31 -1.0 -5.1861121787691795e-31
  outer loop
    vertex 797.4078703833281 345.1076376028557 40.86299564509777
    vertex 801.1004769767524 345.1076376028557 40.33337478015305
    vertex 800.6645172457291 345.1076376028557 40.41653808180045
  endloop
endfacet
facet normal 2.306175603787098e-31 -1.0 -5.1861121787691795e-31
  outer loop
    vertex 797.4078703833281 345.1076376028557 40.86299564509777
    vertex 800.6645172457291 345.1076376028557 40.41653808180045
    vertex 800.2629402585872 345.1076376028557 40.60550684035281
  endloop
endfacet
facet normal 2.306175603787098e-31 -1.0 -5.1861121787691795e-31
  outer loop
    vertex 797.4078703833281 345.1076376028557 40.86299564509777
    vertex 800.2629402585872 345.1076376028557 40.60550684035281
    vertex 799.920966480214 345.1076376028557 40.888407761373905
  endloop
endfacet
facet normal 2.306175603787098e-31 -1.0 -5.1861121787691795e-31
  outer loop
    vertex 797.4078703833281 345.1076376028557 40.86299564509777
    vertex 799.920966480214 345.1076376028557 40.888407761373905
    vertex 797.2172041845976 345.1076376028557 41.88965084224133
  endloop
endfacet
facet normal 2.306175603787098e-31 -1.0 -5.1861121787691795e-31
  outer loop
    vertex 797.2172041845976 345.1076376028557 41.88965084224133
    vertex 799.920966480214 345.1076376028557 40.888407761373905
    vertex 799.6600976379118 345.1076376028557 41.247465951355274
  endloop
endfacet
facet normal 2.306175603787098e-31 -1.0 -5.1861121787691795e-31
  outer loop
    vertex 797.2172041845976 345.1076376028557 41.88965084224133
    vertex 799.6600976379118 345.1076376028557 41.247465951355274
    vertex 799.4967189918182 345.1076376028557 41.660118011288674
  endloop
endfacet
facet normal 2.306175603787098e-31 -1.0 -5.1861121787691795e-31
  outer loop
    vertex 797.2172041845976 345.1076376028557 41.88965084224133
    vertex 799.4967189918182 345.1076376028557 41.660118011288674
    vertex 799.4410967400686 345.1076376028557 42.10043766169935
  endloop
endfacet
facet normal 2.306175603787098e-31 -1.0 -5.1861121787691795e-31
  outer loop
    vertex 797.2172041845976 345.1076376028557 41.88965084224133
    vertex 799.4410967400686 345.1076376028557 42.10043766169935
    vertex 797.2987624121367 345.1076376028557 42.93067218928723
  endloop
endfacet
facet normal 2.306175603787098e-31 -1.0 -5.1861121787691795e-31
  outer loop
    vertex 797.2987624121367 345.1076376028557 42.93067218928723
    vertex 799.4410967400686 345.1076376028557 42.10043766169935
    vertex 799.4967189918182 345.1076376028557 42.54075731211003
  endloop
endfacet
facet normal 2.306175603787098e-31 -1.0 -5.1861121787691795e-31
  outer loop
    vertex 797.2987624121367 345.1076376028557 42.93067218928723
    vertex 799.4967189918182 345.1076376028557 42.54075731211003
    vertex 799.6600976379118 345.1076376028557 42.953409372043346
  endloop
endfacet
facet normal 2.306175603787098e-31 -1.0 -5.1861121787691795e-31
  outer loop
    vertex 797.2987624121367 345.1076376028557 42.93067218928723
    vertex 799.6600976379118 345.1076376028557 42.953409372043346
    vertex 797.6469679785431 345.1076376028557 43.91511203914073
  endloop
endfacet
facet normal 2.306175603787098e-31 -1.0 -5.1861121787691795e-31
  outer loop
    vertex 797.6469679785431 345.1076376028557 43.91511203914073
    vertex 799.6600976379118 345.1076376028557 42.953409372043346
    vertex 799.920966480214 345.1076376028557 43.3124675620248
  endloop
endfacet
facet normal 2.306175603787098e-31 -1.0 -5.1861121787691795e-31
  outer loop
    vertex 797.6469679785431 345.1076376028557 43.91511203914073
    vertex 799.920966480214 345.1076376028557 43.3124675620248
    vertex 800.2629402585872 345.1076376028557 43.595368483045895
  endloop
endfacet
facet normal 2.306175603787098e-31 -1.0 -5.1861121787691795e-31
  outer loop
    vertex 797.6469679785431 345.1076376028557 43.91511203914073
    vertex 800.2629402585872 345.1076376028557 43.595368483045895
    vertex 800.6645172457291 345.1076376028557 43.78433724159817
  endloop
endfacet
facet normal 2.306175603787098e-31 -1.0 -5.1861121787691795e-31
  outer loop
    vertex 797.6469679785431 345.1076376028557 43.91511203914073
    vertex 800.6645172457291 345.1076376028557 43.78433724159817
    vertex 801.1004769767524 345.1076376028557 43.867500543245654
  endloop
endfacet
facet normal 0.18258987321534256 0.0 -0.9831891670473213
  outer loop
    vertex 802.4490920019806 358.6076376028557 38.296658059648536
    vertex 801.4224348974883 345.1076376028557 38.10599567561533
    vertex 801.4224348974883 358.6076376028557 38.10599567561533
  endloop
endfacet
facet normal 0.18258987321534256 0.0 -0.9831891670473213
  outer loop
    vertex 801.4224348974883 345.1076376028557 38.10599567561533
    vertex 802.4490920019806 358.6076376028557 38.296658059648536
    vertex 802.4490920019806 345.1076376028557 38.296658059648536
  endloop
endfacet
facet normal -0.33346530156431514 0.0 -0.9427623733755078
  outer loop
    vertex 800.3814192724883 358.6076376028557 38.187547227434216
    vertex 799.3969756079375 345.1076376028557 38.53575565486342
    vertex 799.3969756079375 358.6076376028557 38.53575565486342
  endloop
endfacet
facet normal -0.33346530156431514 0.0 -0.9427623733755078
  outer loop
    vertex 799.3969756079375 345.1076376028557 38.53575565486342
    vertex 800.3814192724883 358.6076376028557 38.187547227434216
    vertex 800.3814192724883 345.1076376028557 38.187547227434216
  endloop
endfacet
facet normal -0.649718948063937 0.0 0.7601745118896653
  outer loop
    vertex 799.0318861914336 345.1076376028557 45.45433284907726
    vertex 798.2381010962185 358.6076376028557 44.775887033037215
    vertex 798.2381010962185 345.1076376028557 44.775887033037215
  endloop
endfacet
facet normal -0.649718948063937 0.0 0.7601745118896653
  outer loop
    vertex 798.2381010962185 358.6076376028557 44.775887033037215
    vertex 799.0318861914336 345.1076376028557 45.45433284907726
    vertex 799.0318861914336 358.6076376028557 45.45433284907726
  endloop
endfacet
facet normal 0.0 0.0 1.0
  outer loop
    vertex 843.2116499853789 345.1076376028557 56.10043766169933
    vertex 815.412493796414 358.6076376028557 56.10043766169933
    vertex 815.412493796414 345.1076376028557 56.10043766169933
  endloop
endfacet
facet normal 0.0 0.0 1.0
  outer loop
    vertex 815.412493796414 358.6076376028557 56.10043766169933
    vertex 843.2116499853789 345.1076376028557 56.10043766169933
    vertex 843.2116499853789 358.6076376028557 56.10043766169933
  endloop
endfacet
facet normal -0.7289698265893106 0.0 0.6845458289423363
  outer loop
    vertex 844.6359048576913 358.60763760285545 51.06565509593277
    vertex 844.3338213973983 345.1076376028557 50.74396775469864
    vertex 844.6359048576913 345.1076376028557 51.06565509593277
  endloop
endfacet
facet normal -0.7289698265893106 0.0 0.6845458289423363
  outer loop
    vertex 844.3338213973983 345.1076376028557 50.74396775469864
    vertex 844.6359048576913 358.60763760285545 51.06565509593277
    vertex 844.3338213973983 358.60763760285545 50.74396775469864
  endloop
endfacet
facet normal -1.0 0.0 0.0
  outer loop
    vertex 844.958245902127 358.60763760285545 52.32108358324012
    vertex 844.958245902127 345.1076376028557 51.87979174015855
    vertex 844.958245902127 345.1076376028557 52.32108358324012
  endloop
endfacet
facet normal -1.0 0.0 0.0
  outer loop
    vertex 844.958245902127 345.1076376028557 51.87979174015855
    vertex 844.958245902127 358.60763760285545 52.32108358324012
    vertex 844.958245902127 358.60763760285545 51.87979174015855
  endloop
endfacet
facet normal -0.5358257897050273 -0.0 -0.8443285634674359
  outer loop
    vertex 844.3338213973983 358.60763760285545 53.45690756870003
    vertex 843.9612233075017 345.1076376028557 53.693364884488965
    vertex 843.9612233075017 358.60763760285545 53.693364884488965
  endloop
endfacet
facet normal -0.5358257897050273 -0.0 -0.8443285634674359
  outer loop
    vertex 843.9612233075017 345.1076376028557 53.693364884488965
    vertex 844.3338213973983 358.60763760285545 53.45690756870003
    vertex 844.3338213973983 345.1076376028557 53.45690756870003
  endloop
endfacet
facet normal 0.18738030408439518 0.0 -0.982287443491588
  outer loop
    vertex 843.1011098552865 358.60763760285545 53.857440951123934
    vertex 842.6676319814159 345.1076376028557 53.77475108640265
    vertex 842.6676319814159 358.60763760285545 53.77475108640265
  endloop
endfacet
facet normal 0.18738030408439518 0.0 -0.982287443491588
  outer loop
    vertex 842.6676319814159 345.1076376028557 53.77475108640265
    vertex 843.1011098552865 358.60763760285545 53.857440951123934
    vertex 843.1011098552865 345.1076376028557 53.857440951123934
  endloop
endfacet
facet normal 0.9921144443926561 0.0 -0.12533526729317532
  outer loop
    vertex 841.4511723285298 358.60763760285545 52.10043766169934
    vertex 841.5064819210423 345.1076376028557 52.53825095104992
    vertex 841.4511723285298 345.1076376028557 52.10043766169934
  endloop
endfacet
facet normal 0.9921144443926561 0.0 -0.12533526729317532
  outer loop
    vertex 841.5064819210423 345.1076376028557 52.53825095104992
    vertex 841.4511723285298 358.60763760285545 52.10043766169934
    vertex 841.5064819210423 358.60763760285545 52.53825095104992
  endloop
endfacet
facet normal 0.6087611990767061 0.0 0.7933535167242224
  outer loop
    vertex 846.0400763464629 345.1076376028557 54.92886402278336
    vertex 845.2116499853788 358.6076376028557 55.564537545732556
    vertex 845.2116499853788 345.1076376028557 55.564537545732556
  endloop
endfacet
facet normal 0.6087611990767061 0.0 0.7933535167242224
  outer loop
    vertex 845.2116499853788 358.6076376028557 55.564537545732556
    vertex 846.0400763464629 345.1076376028557 54.92886402278336
    vertex 846.0400763464629 358.6076376028557 54.92886402278336
  endloop
endfacet
facet normal 0.991445035725498 0.0 -0.13052486788066905
  outer loop
    vertex 847.0753546667754 358.6076376028557 51.06516124873545
    vertex 847.2116499853787 345.1076376028557 52.10043766169934
    vertex 847.0753546667754 345.1076376028557 51.06516124873545
  endloop
endfacet
facet normal 0.991445035725498 0.0 -0.13052486788066905
  outer loop
    vertex 847.2116499853787 345.1076376028557 52.10043766169934
    vertex 847.0753546667754 358.6076376028557 51.06516124873545
    vertex 847.2116499853787 358.6076376028557 52.10043766169934
  endloop
endfacet
facet normal 0.608762348753334 0.0 -0.7933526345455244
  outer loop
    vertex 846.0400763464629 358.6076376028557 49.27201130061531
    vertex 845.2116499853788 345.1076376028557 48.63633587031749
    vertex 845.2116499853788 358.6076376028557 48.63633587031749
  endloop
endfacet
facet normal 0.608762348753334 0.0 -0.7933526345455244
  outer loop
    vertex 845.2116499853788 345.1076376028557 48.63633587031749
    vertex 846.0400763464629 358.6076376028557 49.27201130061531
    vertex 846.0400763464629 345.1076376028557 49.27201130061531
  endloop
endfacet
facet normal -0.5661104442450651 0.0 -0.8243294031615365
  outer loop
    vertex 799.3969756079375 358.6076376028557 38.53575565486342
    vertex 798.5362044287382 345.1076376028557 39.12689258723641
    vertex 798.5362044287382 358.6076376028557 39.12689258723641
  endloop
endfacet
facet normal -0.5661104442450651 0.0 -0.8243294031615365
  outer loop
    vertex 798.5362044287382 345.1076376028557 39.12689258723641
    vertex 799.3969756079375 358.6076376028557 38.53575565486342
    vertex 799.3969756079375 345.1076376028557 38.53575565486342
  endloop
endfacet
facet normal -0.9831884503207446 0.0 -0.18259373252084235
  outer loop
    vertex 797.2172041845976 358.6076376028557 41.88965084224133
    vertex 797.4078703833281 345.1076376028557 40.86299564509777
    vertex 797.2172041845976 345.1076376028557 41.88965084224133
  endloop
endfacet
facet normal -0.9831884503207446 0.0 -0.18259373252084235
  outer loop
    vertex 797.4078703833281 345.1076376028557 40.86299564509777
    vertex 797.2172041845976 358.6076376028557 41.88965084224133
    vertex 797.4078703833281 358.6076376028557 40.86299564509777
  endloop
endfacet
facet normal 0.18738030408430156 0.0 -0.9822874434916058
  outer loop
    vertex 801.1004769767524 358.6076376028557 43.867500543245654
    vertex 800.6645172457291 345.1076376028557 43.78433724159817
    vertex 800.6645172457291 358.6076376028557 43.78433724159817
  endloop
endfacet
facet normal 0.18738030408430156 0.0 -0.9822874434916058
  outer loop
    vertex 800.6645172457291 345.1076376028557 43.78433724159817
    vertex 801.1004769767524 358.6076376028557 43.867500543245654
    vertex 801.1004769767524 345.1076376028557 43.867500543245654
  endloop
endfacet
facet normal -0.5358298396583429 -0.0 -0.8443259932820466
  outer loop
    vertex 802.3402424090832 358.6076376028557 43.46467394093638
    vertex 801.965515098843 345.1076376028557 43.70248501883662
    vertex 801.965515098843 358.6076376028557 43.70248501883662
  endloop
endfacet
facet normal -0.5358298396583429 -0.0 -0.8443259932820466
  outer loop
    vertex 801.965515098843 345.1076376028557 43.70248501883662
    vertex 802.3402424090832 358.6076376028557 43.46467394093638
    vertex 802.3402424090832 345.1076376028557 43.46467394093638
  endloop
endfacet
facet normal -0.3090172492094371 0.0 0.9510564334943709
  outer loop
    vertex 843.9612233075017 345.1076376028557 50.507510438909705
    vertex 843.5415324101549 358.60763760285545 50.371144475704114
    vertex 843.5415324101549 345.1076376028557 50.371144475704114
  endloop
endfacet
facet normal -0.3090172492094371 0.0 0.9510564334943709
  outer loop
    vertex 843.5415324101549 358.60763760285545 50.371144475704114
    vertex 843.9612233075017 345.1076376028557 50.507510438909705
    vertex 843.9612233075017 358.60763760285545 50.507510438909705
  endloop
endfacet
facet normal -0.309017249209381 -0.0 -0.9510564334943893
  outer loop
    vertex 801.965515098843 358.6076376028557 43.70248501883662
    vertex 801.5434211293073 345.1076376028557 43.83963178823974
    vertex 801.5434211293073 358.6076376028557 43.83963178823974
  endloop
endfacet
facet normal -0.309017249209381 -0.0 -0.9510564334943893
  outer loop
    vertex 801.5434211293073 345.1076376028557 43.83963178823974
    vertex 801.965515098843 358.6076376028557 43.70248501883662
    vertex 801.965515098843 345.1076376028557 43.70248501883662
  endloop
endfacet
facet normal -0.06279292323618643 0.0 0.9980265771969473
  outer loop
    vertex 801.5434211293073 345.1076376028557 40.36124353515897
    vertex 801.1004769767524 358.6076376028557 40.33337478015305
    vertex 801.1004769767524 345.1076376028557 40.33337478015305
  endloop
endfacet
facet normal -0.06279292323618643 0.0 0.9980265771969473
  outer loop
    vertex 801.1004769767524 358.6076376028557 40.33337478015305
    vertex 801.5434211293073 345.1076376028557 40.36124353515897
    vertex 801.5434211293073 358.6076376028557 40.36124353515897
  endloop
endfacet
facet normal 0.9297779221090319 0.0 0.36812092518439
  outer loop
    vertex 799.6600976379118 358.6076376028557 41.247465951355274
    vertex 799.4967189918182 345.1076376028557 41.660118011288674
    vertex 799.6600976379118 345.1076376028557 41.247465951355274
  endloop
endfacet
facet normal 0.9297779221090319 0.0 0.36812092518439
  outer loop
    vertex 799.4967189918182 345.1076376028557 41.660118011288674
    vertex 799.6600976379118 358.6076376028557 41.247465951355274
    vertex 799.4967189918182 358.6076376028557 41.660118011288674
  endloop
endfacet
facet normal 0.18738030408439518 0.0 0.982287443491588
  outer loop
    vertex 843.1011098552865 345.1076376028557 50.34343437227474
    vertex 842.6676319814159 358.60763760285545 50.42612423699602
    vertex 842.6676319814159 345.1076376028557 50.42612423699602
  endloop
endfacet
facet normal 0.18738030408439518 0.0 0.982287443491588
  outer loop
    vertex 842.6676319814159 358.60763760285545 50.42612423699602
    vertex 843.1011098552865 345.1076376028557 50.34343437227474
    vertex 843.1011098552865 358.60763760285545 50.34343437227474
  endloop
endfacet
facet normal -0.7289653594653611 0.0 0.6845505859317753
  outer loop
    vertex 802.6440592139606 358.6076376028557 41.05973032383004
    vertex 802.3402424090832 345.1076376028557 40.73620138246233
    vertex 802.6440592139606 345.1076376028557 41.05973032383004
  endloop
endfacet
facet normal -0.7289653594653611 0.0 0.6845505859317753
  outer loop
    vertex 802.3402424090832 345.1076376028557 40.73620138246233
    vertex 802.6440592139606 358.6076376028557 41.05973032383004
    vertex 802.3402424090832 358.6076376028557 40.73620138246233
  endloop
endfacet
facet normal 0.6374181145524385 0.0 -0.7705181031230964
  outer loop
    vertex 800.2629402585872 358.6076376028557 43.595368483045895
    vertex 799.920966480214 345.1076376028557 43.3124675620248
    vertex 799.920966480214 358.6076376028557 43.3124675620248
  endloop
endfacet
facet normal 0.6374181145524385 0.0 -0.7705181031230964
  outer loop
    vertex 799.920966480214 345.1076376028557 43.3124675620248
    vertex 800.2629402585872 358.6076376028557 43.595368483045895
    vertex 800.2629402585872 345.1076376028557 43.595368483045895
  endloop
endfacet
facet normal 0.8090193544944695 0.0 0.5877820038529185
  outer loop
    vertex 799.920966480214 358.6076376028557 40.888407761373905
    vertex 799.6600976379118 345.1076376028557 41.247465951355274
    vertex 799.920966480214 345.1076376028557 40.888407761373905
  endloop
endfacet
facet normal 0.8090193544944695 0.0 0.5877820038529185
  outer loop
    vertex 799.6600976379118 345.1076376028557 41.247465951355274
    vertex 799.920966480214 358.6076376028557 40.888407761373905
    vertex 799.6600976379118 358.6076376028557 41.247465951355274
  endloop
endfacet
facet normal -0.309017249209381 0.0 0.9510564334943893
  outer loop
    vertex 801.965515098843 345.1076376028557 40.498390304562086
    vertex 801.5434211293073 358.6076376028557 40.36124353515897
    vertex 801.5434211293073 345.1076376028557 40.36124353515897
  endloop
endfacet
facet normal -0.309017249209381 0.0 0.9510564334943893
  outer loop
    vertex 801.5434211293073 358.6076376028557 40.36124353515897
    vertex 801.965515098843 345.1076376028557 40.498390304562086
    vertex 801.965515098843 358.6076376028557 40.498390304562086
  endloop
endfacet
facet normal -0.9685848461165616 -0.0 -0.2486833244778523
  outer loop
    vertex 802.8578715392146 358.6076376028557 42.75222357424336
    vertex 802.9682420874294 345.1076376028557 42.322346578337225
    vertex 802.8578715392146 345.1076376028557 42.75222357424336
  endloop
endfacet
facet normal -0.9685848461165616 -0.0 -0.2486833244778523
  outer loop
    vertex 802.9682420874294 345.1076376028557 42.322346578337225
    vertex 802.8578715392146 358.6076376028557 42.75222357424336
    vertex 802.9682420874294 358.6076376028557 42.322346578337225
  endloop
endfacet
facet normal 0.425781085074568 0.0 0.9048262085023421
  outer loop
    vertex 800.6645172457291 345.1076376028557 40.41653808180045
    vertex 800.2629402585872 358.6076376028557 40.60550684035281
    vertex 800.2629402585872 345.1076376028557 40.60550684035281
  endloop
endfacet
facet normal 0.425781085074568 0.0 0.9048262085023421
  outer loop
    vertex 800.2629402585872 358.6076376028557 40.60550684035281
    vertex 800.6645172457291 345.1076376028557 40.41653808180045
    vertex 800.6645172457291 358.6076376028557 40.41653808180045
  endloop
endfacet
facet normal 0.1873803040841054 0.0 0.9822874434916432
  outer loop
    vertex 801.1004769767524 345.1076376028557 40.33337478015305
    vertex 800.6645172457291 358.6076376028557 40.41653808180045
    vertex 800.6645172457291 345.1076376028557 40.41653808180045
  endloop
endfacet
facet normal 0.1873803040841054 0.0 0.9822874434916432
  outer loop
    vertex 800.6645172457291 358.6076376028557 40.41653808180045
    vertex 801.1004769767524 345.1076376028557 40.33337478015305
    vertex 801.1004769767524 358.6076376028557 40.33337478015305
  endloop
endfacet
facet normal 0.42578108507471724 0.0 0.9048262085022716
  outer loop
    vertex 842.6676319814159 345.1076376028557 50.42612423699602
    vertex 842.2683409292437 358.60763760285545 50.61401731066806
    vertex 842.2683409292437 345.1076376028557 50.61401731066806
  endloop
endfacet
facet normal 0.42578108507471724 0.0 0.9048262085022716
  outer loop
    vertex 842.2683409292437 358.60763760285545 50.61401731066806
    vertex 842.6676319814159 345.1076376028557 50.42612423699602
    vertex 842.6676319814159 358.60763760285545 50.42612423699602
  endloop
endfacet
facet normal -0.06279292323618643 -0.0 -0.9980265771969473
  outer loop
    vertex 801.5434211293073 358.6076376028557 43.83963178823974
    vertex 801.1004769767524 345.1076376028557 43.867500543245654
    vertex 801.1004769767524 358.6076376028557 43.867500543245654
  endloop
endfacet
facet normal -0.06279292323618643 -0.0 -0.9980265771969473
  outer loop
    vertex 801.1004769767524 345.1076376028557 43.867500543245654
    vertex 801.5434211293073 358.6076376028557 43.83963178823974
    vertex 801.5434211293073 345.1076376028557 43.83963178823974
  endloop
endfacet
facet normal -0.9685848461165742 0.0 0.2486833244778033
  outer loop
    vertex 802.9682420874294 358.6076376028557 41.87852874506148
    vertex 802.8578715392146 345.1076376028557 41.44865174915525
    vertex 802.9682420874294 345.1076376028557 41.87852874506148
  endloop
endfacet
facet normal -0.9685848461165742 0.0 0.2486833244778033
  outer loop
    vertex 802.8578715392146 345.1076376028557 41.44865174915525
    vertex 802.9682420874294 358.6076376028557 41.87852874506148
    vertex 802.8578715392146 358.6076376028557 41.44865174915525
  endloop
endfacet
facet normal 0.6374225111833486 0.0 0.770514465949027
  outer loop
    vertex 842.2683409292437 345.1076376028557 50.61401731066806
    vertex 841.9283179802027 358.60763760285545 50.895307658371955
    vertex 841.9283179802027 345.1076376028557 50.895307658371955
  endloop
endfacet
facet normal 0.6374225111833486 0.0 0.770514465949027
  outer loop
    vertex 841.9283179802027 358.60763760285545 50.895307658371955
    vertex 842.2683409292437 345.1076376028557 50.61401731066806
    vertex 842.2683409292437 358.60763760285545 50.61401731066806
  endloop
endfacet
facet normal -0.06279292323630545 0.0 0.99802657719694
  outer loop
    vertex 843.5415324101549 345.1076376028557 50.371144475704114
    vertex 843.1011098552865 358.60763760285545 50.34343437227474
    vertex 843.1011098552865 345.1076376028557 50.34343437227474
  endloop
endfacet
facet normal -0.06279292323630545 0.0 0.99802657719694
  outer loop
    vertex 843.1011098552865 358.60763760285545 50.34343437227474
    vertex 843.5415324101549 345.1076376028557 50.371144475704114
    vertex 843.5415324101549 358.60763760285545 50.371144475704114
  endloop
endfacet
facet normal 0.8090193544945397 0.0 -0.5877820038528218
  outer loop
    vertex 799.6600976379118 358.6076376028557 42.953409372043346
    vertex 799.920966480214 345.1076376028557 43.3124675620248
    vertex 799.6600976379118 345.1076376028557 42.953409372043346
  endloop
endfacet
facet normal 0.8090193544945397 0.0 -0.5877820038528218
  outer loop
    vertex 799.920966480214 345.1076376028557 43.3124675620248
    vertex 799.6600976379118 358.6076376028557 42.953409372043346
    vertex 799.920966480214 358.6076376028557 43.3124675620248
  endloop
endfacet
facet normal 0.8090150976242207 0.0 0.5877878629370231
  outer loop
    vertex 841.9283179802027 358.60763760285545 50.895307658371955
    vertex 841.6689304537264 345.1076376028557 51.252321537505466
    vertex 841.9283179802027 345.1076376028557 50.895307658371955
  endloop
endfacet
facet normal 0.8090150976242207 0.0 0.5877878629370231
  outer loop
    vertex 841.6689304537264 345.1076376028557 51.252321537505466
    vertex 841.9283179802027 358.60763760285545 50.895307658371955
    vertex 841.6689304537264 358.60763760285545 51.252321537505466
  endloop
endfacet
facet normal -0.7289653594653611 -0.0 -0.6845505859317753
  outer loop
    vertex 802.3402424090832 358.6076376028557 43.46467394093638
    vertex 802.6440592139606 345.1076376028557 43.14114499956867
    vertex 802.3402424090832 345.1076376028557 43.46467394093638
  endloop
endfacet
facet normal -0.7289653594653611 -0.0 -0.6845505859317753
  outer loop
    vertex 802.6440592139606 345.1076376028557 43.14114499956867
    vertex 802.3402424090832 358.6076376028557 43.46467394093638
    vertex 802.6440592139606 358.6076376028557 43.14114499956867
  endloop
endfacet
facet normal -0.5358298396583429 0.0 0.8443259932820466
  outer loop
    vertex 802.3402424090832 345.1076376028557 40.73620138246233
    vertex 801.965515098843 358.6076376028557 40.498390304562086
    vertex 801.965515098843 345.1076376028557 40.498390304562086
  endloop
endfacet
facet normal -0.5358298396583429 0.0 0.8443259932820466
  outer loop
    vertex 801.965515098843 358.6076376028557 40.498390304562086
    vertex 802.3402424090832 345.1076376028557 40.73620138246233
    vertex 802.3402424090832 358.6076376028557 40.73620138246233
  endloop
endfacet
facet normal 0.6374181145524385 0.0 0.7705181031230964
  outer loop
    vertex 800.2629402585872 345.1076376028557 40.60550684035281
    vertex 799.920966480214 358.6076376028557 40.888407761373905
    vertex 799.920966480214 345.1076376028557 40.888407761373905
  endloop
endfacet
facet normal 0.6374181145524385 0.0 0.7705181031230964
  outer loop
    vertex 799.920966480214 358.6076376028557 40.888407761373905
    vertex 800.2629402585872 345.1076376028557 40.60550684035281
    vertex 800.2629402585872 358.6076376028557 40.60550684035281
  endloop
endfacet
facet normal 0.9297779221088244 0.0 0.36812092518491385
  outer loop
    vertex 841.6689304537264 358.60763760285545 51.252321537505466
    vertex 841.5064819210423 345.1076376028557 51.66262437234876
    vertex 841.6689304537264 345.1076376028557 51.252321537505466
  endloop
endfacet
facet normal 0.9297779221088244 0.0 0.36812092518491385
  outer loop
    vertex 841.5064819210423 345.1076376028557 51.66262437234876
    vertex 841.6689304537264 358.60763760285545 51.252321537505466
    vertex 841.5064819210423 358.60763760285545 51.66262437234876
  endloop
endfacet
facet normal 0.9297779221090043 0.0 -0.3681209251844596
  outer loop
    vertex 799.4967189918182 358.6076376028557 42.54075731211003
    vertex 799.6600976379118 345.1076376028557 42.953409372043346
    vertex 799.4967189918182 345.1076376028557 42.54075731211003
  endloop
endfacet
facet normal 0.9297779221090043 0.0 -0.3681209251844596
  outer loop
    vertex 799.6600976379118 345.1076376028557 42.953409372043346
    vertex 799.4967189918182 358.6076376028557 42.54075731211003
    vertex 799.6600976379118 358.6076376028557 42.953409372043346
  endloop
endfacet
facet normal -0.8763057646541302 0.0 0.48175533918571184
  outer loop
    vertex 802.8578715392146 358.6076376028557 41.44865174915525
    vertex 802.6440592139606 345.1076376028557 41.05973032383004
    vertex 802.8578715392146 345.1076376028557 41.44865174915525
  endloop
endfacet
facet normal -0.8763057646541302 0.0 0.48175533918571184
  outer loop
    vertex 802.6440592139606 345.1076376028557 41.05973032383004
    vertex 802.8578715392146 358.6076376028557 41.44865174915525
    vertex 802.6440592139606 358.6076376028557 41.05973032383004
  endloop
endfacet
facet normal 0.9921144443926561 0.0 0.12533526729317532
  outer loop
    vertex 841.5064819210423 358.60763760285545 51.66262437234876
    vertex 841.4511723285298 345.1076376028557 52.10043766169934
    vertex 841.5064819210423 345.1076376028557 51.66262437234876
  endloop
endfacet
facet normal 0.9921144443926561 0.0 0.12533526729317532
  outer loop
    vertex 841.4511723285298 345.1076376028557 52.10043766169934
    vertex 841.5064819210423 358.60763760285545 51.66262437234876
    vertex 841.4511723285298 358.60763760285545 52.10043766169934
  endloop
endfacet
facet normal 0.9921155574934385 0.0 -0.12532645602379267
  outer loop
    vertex 799.4410967400686 358.6076376028557 42.10043766169935
    vertex 799.4967189918182 345.1076376028557 42.54075731211003
    vertex 799.4410967400686 345.1076376028557 42.10043766169935
  endloop
endfacet
facet normal 0.9921155574934385 0.0 -0.12532645602379267
  outer loop
    vertex 799.4967189918182 345.1076376028557 42.54075731211003
    vertex 799.4410967400686 358.6076376028557 42.10043766169935
    vertex 799.4967189918182 358.6076376028557 42.54075731211003
  endloop
endfacet
facet normal -0.8763057646541774 -0.0 -0.481755339185626
  outer loop
    vertex 802.6440592139606 358.6076376028557 43.14114499956867
    vertex 802.8578715392146 345.1076376028557 42.75222357424336
    vertex 802.6440592139606 345.1076376028557 43.14114499956867
  endloop
endfacet
facet normal -0.8763057646541774 -0.0 -0.481755339185626
  outer loop
    vertex 802.8578715392146 345.1076376028557 42.75222357424336
    vertex 802.6440592139606 358.6076376028557 43.14114499956867
    vertex 802.8578715392146 358.6076376028557 42.75222357424336
  endloop
endfacet
facet normal 0.9921155574934385 0.0 0.12532645602379267
  outer loop
    vertex 799.4967189918182 358.6076376028557 41.660118011288674
    vertex 799.4410967400686 345.1076376028557 42.10043766169935
    vertex 799.4967189918182 345.1076376028557 41.660118011288674
  endloop
endfacet
facet normal 0.9921155574934385 0.0 0.12532645602379267
  outer loop
    vertex 799.4410967400686 345.1076376028557 42.10043766169935
    vertex 799.4967189918182 358.6076376028557 41.660118011288674
    vertex 799.4410967400686 358.6076376028557 42.10043766169935
  endloop
endfacet
facet normal 0.42578108507440154 0.0 -0.9048262085024205
  outer loop
    vertex 800.6645172457291 358.6076376028557 43.78433724159817
    vertex 800.2629402585872 345.1076376028557 43.595368483045895
    vertex 800.2629402585872 358.6076376028557 43.595368483045895
  endloop
endfacet
facet normal 0.42578108507440154 0.0 -0.9048262085024205
  outer loop
    vertex 800.2629402585872 345.1076376028557 43.595368483045895
    vertex 800.6645172457291 358.6076376028557 43.78433724159817
    vertex 800.6645172457291 345.1076376028557 43.78433724159817
  endloop
endfacet
facet normal -1.0 -0.0 -0.0
  outer loop
    vertex 802.9682420874294 358.6076376028557 42.322346578337225
    vertex 802.9682420874294 345.1076376028557 41.87852874506148
    vertex 802.9682420874294 345.1076376028557 42.322346578337225
  endloop
endfacet
facet normal -1.0 -0.0 -0.0
  outer loop
    vertex 802.9682420874294 345.1076376028557 41.87852874506148
    vertex 802.9682420874294 358.6076376028557 42.322346578337225
    vertex 802.9682420874294 358.6076376028557 41.87852874506148
  endloop
endfacet
endsolid Kamev2
